<?xml version="1.0" standalone="no"?>
<!DOCTYPE svg PUBLIC "-//W3C//DTD SVG 20010904//EN"
 "http://www.w3.org/TR/2001/REC-SVG-20010904/DTD/svg10.dtd">
<svg version="1.0" xmlns="http://www.w3.org/2000/svg"
 width="16.000000pt" height="16.000000pt" viewBox="0 0 16.000000 16.000000"
 preserveAspectRatio="xMidYMid meet">
<metadata>
Created by potrace 1.11, written by Peter Selinger 2001-2013
</metadata>
<g transform="translate(0.000000,16.000000) scale(0.002286,-0.002286)"
fill="#000000" stroke="none">
<path d="M755 6985 c-214 -39 -408 -152 -545 -318 -72 -87 -151 -241 -182
-357 l-23 -85 0 -2725 0 -2725 23 -85 c31 -117 110 -270 182 -358 119 -143
295 -254 480 -304 l85 -23 2725 0 2725 0 85 23 c117 31 270 110 358 182 143
119 254 295 304 480 l23 85 0 2725 0 2725 -23 85 c-50 185 -161 361 -304 480
-85 70 -238 149 -353 182 l-80 23 -2705 2 c-2181 1 -2719 -1 -2775 -12z m4447
-1415 l1048 0 0 -265 0 -265 -560 0 -560 0 0 -1795 0 -1795 -310 0 -310 0 0
1795 0 1795 -507 -2 -508 -3 -467 -605 c-271 -351 -465 -611 -462 -619 3 -8
322 -539 711 -1180 388 -641 708 -1169 710 -1173 2 -5 -159 -8 -359 -8 l-363
0 -570 970 c-313 534 -572 969 -576 968 -4 -2 -82 -96 -173 -210 l-166 -207
-2 -758 -3 -758 -307 -3 -308 -2 0 2060 0 2060 310 0 310 0 0 -965 c0 -531 3
-965 8 -965 4 0 30 37 57 82 117 192 259 397 765 1102 l535 745 130 4 c72 2
298 3 504 1 206 -2 846 -4 1423 -4z"/>
</g>
</svg>
